<svg width="34" height="37" viewBox="0 0 34 37" fill="none" xmlns="http://www.w3.org/2000/svg">
<path d="M3.66634 36.6667C2.74967 36.6667 1.96523 36.3406 1.31301 35.6883C0.659675 35.035 0.333008 34.25 0.333008 33.3333V10C0.333008 9.08333 0.659675 8.29889 1.31301 7.64667C1.96523 6.99333 2.74967 6.66667 3.66634 6.66667H10.333L16.9997 0L23.6663 6.66667H30.333C31.2497 6.66667 32.0347 6.99333 32.688 7.64667C33.3402 8.29889 33.6663 9.08333 33.6663 10V33.3333C33.6663 34.25 33.3402 35.035 32.688 35.6883C32.0347 36.3406 31.2497 36.6667 30.333 36.6667H3.66634ZM3.66634 33.3333H30.333V10H22.2913L16.9997 4.70833L11.708 10H3.66634V33.3333ZM6.99967 30V13.3333H26.9997V30H6.99967ZM10.333 26.6667H23.6663V16.6667H10.333V26.6667Z" fill="#1C1B1F"/>
</svg>
