<svg width="21" height="21" viewBox="0 0 21 21" fill="none" xmlns="http://www.w3.org/2000/svg">
<path d="M10.434 20.6338C9.06729 20.6338 7.77563 20.3711 6.55896 19.8458C5.34229 19.3211 4.27996 18.6045 3.37196 17.6958C2.46329 16.7878 1.74663 15.7255 1.22196 14.5088C0.696627 13.2921 0.43396 12.0005 0.43396 10.6338C0.43396 9.25046 0.696627 7.95479 1.22196 6.74679C1.74663 5.53812 2.46329 4.47979 3.37196 3.57179C4.27996 2.66312 5.34229 1.94612 6.55896 1.42079C7.77563 0.896122 9.06729 0.633789 10.434 0.633789C11.8173 0.633789 13.113 0.896122 14.321 1.42079C15.5296 1.94612 16.588 2.66312 17.496 3.57179C18.4046 4.47979 19.1213 5.53812 19.646 6.74679C20.1713 7.95479 20.434 9.25046 20.434 10.6338C20.434 12.0005 20.1713 13.2921 19.646 14.5088C19.1213 15.7255 18.4046 16.7878 17.496 17.6958C16.588 18.6045 15.5296 19.3211 14.321 19.8458C13.113 20.3711 11.8173 20.6338 10.434 20.6338ZM10.434 18.5838C10.8673 17.9838 11.2423 17.3588 11.559 16.7088C11.8756 16.0588 12.134 15.3671 12.334 14.6338H8.53396C8.73396 15.3671 8.99229 16.0588 9.30896 16.7088C9.62563 17.3588 10.0006 17.9838 10.434 18.5838ZM7.83396 18.1838C7.53396 17.6338 7.27163 17.0628 7.04696 16.4708C6.82163 15.8795 6.63396 15.2671 6.48396 14.6338H3.53396C4.01729 15.4671 4.62129 16.1921 5.34596 16.8088C6.07129 17.4255 6.90063 17.8838 7.83396 18.1838ZM13.034 18.1838C13.9673 17.8838 14.7963 17.4255 15.521 16.8088C16.2463 16.1921 16.8506 15.4671 17.334 14.6338H14.384C14.234 15.2671 14.0466 15.8795 13.822 16.4708C13.5966 17.0628 13.334 17.6338 13.034 18.1838ZM2.68396 12.6338H6.08396C6.03396 12.3005 5.99629 11.9711 5.97096 11.6458C5.94629 11.3211 5.93396 10.9838 5.93396 10.6338C5.93396 10.2838 5.94629 9.94646 5.97096 9.62179C5.99629 9.29646 6.03396 8.96712 6.08396 8.63379H2.68396C2.60063 8.96712 2.53796 9.29646 2.49596 9.62179C2.45463 9.94646 2.43396 10.2838 2.43396 10.6338C2.43396 10.9838 2.45463 11.3211 2.49596 11.6458C2.53796 11.9711 2.60063 12.3005 2.68396 12.6338ZM8.08396 12.6338H12.784C12.834 12.3005 12.8716 11.9711 12.897 11.6458C12.9216 11.3211 12.934 10.9838 12.934 10.6338C12.934 10.2838 12.9216 9.94646 12.897 9.62179C12.8716 9.29646 12.834 8.96712 12.784 8.63379H8.08396C8.03396 8.96712 7.99663 9.29646 7.97196 9.62179C7.94663 9.94646 7.93396 10.2838 7.93396 10.6338C7.93396 10.9838 7.94663 11.3211 7.97196 11.6458C7.99663 11.9711 8.03396 12.3005 8.08396 12.6338ZM14.784 12.6338H18.184C18.2673 12.3005 18.33 11.9711 18.372 11.6458C18.4133 11.3211 18.434 10.9838 18.434 10.6338C18.434 10.2838 18.4133 9.94646 18.372 9.62179C18.33 9.29646 18.2673 8.96712 18.184 8.63379H14.784C14.834 8.96712 14.8713 9.29646 14.896 9.62179C14.9213 9.94646 14.934 10.2838 14.934 10.6338C14.934 10.9838 14.9213 11.3211 14.896 11.6458C14.8713 11.9711 14.834 12.3005 14.784 12.6338ZM14.384 6.63379H17.334C16.8506 5.80046 16.2463 5.07546 15.521 4.45879C14.7963 3.84212 13.9673 3.38379 13.034 3.08379C13.334 3.63379 13.5966 4.20446 13.822 4.79579C14.0466 5.38779 14.234 6.00046 14.384 6.63379ZM8.53396 6.63379H12.334C12.134 5.90046 11.8756 5.20879 11.559 4.55879C11.2423 3.90879 10.8673 3.28379 10.434 2.68379C10.0006 3.28379 9.62563 3.90879 9.30896 4.55879C8.99229 5.20879 8.73396 5.90046 8.53396 6.63379ZM3.53396 6.63379H6.48396C6.63396 6.00046 6.82163 5.38779 7.04696 4.79579C7.27163 4.20446 7.53396 3.63379 7.83396 3.08379C6.90063 3.38379 6.07129 3.84212 5.34596 4.45879C4.62129 5.07546 4.01729 5.80046 3.53396 6.63379Z" fill="#1C1B1F"/>
</svg>
