<svg width="19" height="22" viewBox="0 0 19 22" fill="none" xmlns="http://www.w3.org/2000/svg">
<path d="M2.43396 21.6338C1.88396 21.6338 1.41296 21.4381 1.02096 21.0468C0.629627 20.6548 0.43396 20.1838 0.43396 19.6338V7.63379C0.43396 7.08379 0.629627 6.61312 1.02096 6.22179C1.41296 5.82979 1.88396 5.63379 2.43396 5.63379H4.43396C4.43396 4.25046 4.92163 3.07112 5.89696 2.09579C6.87163 1.12112 8.05063 0.633789 9.43396 0.633789C10.8173 0.633789 11.9966 1.12112 12.972 2.09579C13.9466 3.07112 14.434 4.25046 14.434 5.63379H16.434C16.984 5.63379 17.455 5.82979 17.847 6.22179C18.2383 6.61312 18.434 7.08379 18.434 7.63379V19.6338C18.434 20.1838 18.2383 20.6548 17.847 21.0468C17.455 21.4381 16.984 21.6338 16.434 21.6338H2.43396ZM2.43396 19.6338H16.434V7.63379H2.43396V19.6338ZM9.43396 13.6338C10.8173 13.6338 11.9966 13.1461 12.972 12.1708C13.9466 11.1961 14.434 10.0171 14.434 8.63379H12.434C12.434 9.46712 12.1423 10.1755 11.559 10.7588C10.9756 11.3421 10.2673 11.6338 9.43396 11.6338C8.60063 11.6338 7.89229 11.3421 7.30896 10.7588C6.72563 10.1755 6.43396 9.46712 6.43396 8.63379H4.43396C4.43396 10.0171 4.92163 11.1961 5.89696 12.1708C6.87163 13.1461 8.05063 13.6338 9.43396 13.6338ZM6.43396 5.63379H12.434C12.434 4.80046 12.1423 4.09212 11.559 3.50879C10.9756 2.92546 10.2673 2.63379 9.43396 2.63379C8.60063 2.63379 7.89229 2.92546 7.30896 3.50879C6.72563 4.09212 6.43396 4.80046 6.43396 5.63379Z" fill="#1C1B1F"/>
</svg>
